<svg width="14" height="11" viewBox="0 0 14 11" fill="none" xmlns="http://www.w3.org/2000/svg">
<path d="M6.45196 10.046C6.51312 10.1348 6.59495 10.2075 6.69042 10.2576C6.78588 10.3078 6.89211 10.334 6.99996 10.334C7.1078 10.334 7.21403 10.3078 7.3095 10.2576C7.40496 10.2075 7.4868 10.1348 7.54796 10.046L13.548 1.37933C13.6174 1.27937 13.6581 1.16229 13.6657 1.0408C13.6733 0.919319 13.6474 0.798081 13.5909 0.690261C13.5345 0.582442 13.4495 0.492164 13.3453 0.429238C13.2411 0.366311 13.1217 0.333141 13 0.333333H0.999958C0.87852 0.333834 0.759517 0.367431 0.655745 0.430508C0.551973 0.493586 0.46736 0.583758 0.411004 0.691328C0.354648 0.798898 0.328681 0.919796 0.335897 1.04102C0.343113 1.16224 0.383238 1.27921 0.451958 1.37933L6.45196 10.046Z" fill="white"/>
</svg>
